<?xml version="1.0" encoding="UTF-8" standalone="no"?>
<!DOCTYPE svg PUBLIC "-//W3C//DTD SVG 1.1//EN"
"http://www.w3.org/Graphics/SVG/1.1/DTD/svg11.dtd">
<svg version="1.1" xmlns="http://www.w3.org/2000/svg" xmlns:xlink="http://www.w3.org/1999/xlink">
<defs>
<style type="text/css"><![CDATA[
.g1_7{
fill: none;
stroke: #000000;
stroke-width: 1;
stroke-linecap: butt;
stroke-linejoin: miter;
}
]]></style>
</defs>
<image x="443" y="71" width="49" height="59" xlink:href="img/1.png" />
<path d="M98.5,189.5l738,0" class="g1_7" />
<path d="M757.5,641.5l77,0" class="g1_7" />
<path d="M92.5,649.5l0,-1" class="g1_7" />
<path d="M92.5,649.5l750,0" class="g1_7" />
<path d="M841.5,649.5l0,-1" class="g1_7" />
<path d="M92.5,681.5l0,-32" class="g1_7" />
<path d="M841.5,681.5l0,-32" class="g1_7" />
<path d="M92.5,681.5l750,0" class="g1_7" />
<path d="M92.5,713.5l0,-32" class="g1_7" />
<path d="M467.5,713.5l0,-32" class="g1_7" />
<path d="M841.5,713.5l0,-32" class="g1_7" />
<path d="M92.5,714.5l0,-1" class="g1_7" />
<path d="M467.5,714.5l375,0" class="g1_7" />
<path d="M92.5,746.5l0,-32" class="g1_7" />
<path d="M467.5,746.5l0,-32" class="g1_7" />
<path d="M841.5,746.5l0,-32" class="g1_7" />
<path d="M92.5,746.5l750,0" class="g1_7" />
<path d="M92.5,778.5l0,-32" class="g1_7" />
<path d="M467.5,778.5l0,-32" class="g1_7" />
<path d="M841.5,778.5l0,-32" class="g1_7" />
<path d="M92.5,779.5l0,-1" class="g1_7" />
<path d="M467.5,779.5l375,0" class="g1_7" />
<path d="M92.5,811.5l0,-32" class="g1_7" />
<path d="M467.5,811.5l0,-32" class="g1_7" />
<path d="M841.5,811.5l0,-32" class="g1_7" />
<path d="M92.5,811.5l750,0" class="g1_7" />
<path d="M92.5,843.5l0,-32" class="g1_7" />
<path d="M467.5,843.5l0,-32" class="g1_7" />
<path d="M841.5,843.5l0,-32" class="g1_7" />
<path d="M92.5,844.5l0,-1" class="g1_7" />
<path d="M467.5,844.5l375,0" class="g1_7" />
<path d="M92.5,889.5l0,-45" class="g1_7" />
<path d="M467.5,889.5l0,-45" class="g1_7" />
<path d="M841.5,889.5l0,-45" class="g1_7" />
<path d="M92.5,890.5l0,-1" class="g1_7" />
<path d="M467.5,890.5l375,0" class="g1_7" />
<path d="M92.5,922.5l0,-32" class="g1_7" />
<path d="M467.5,922.5l0,-32" class="g1_7" />
<path d="M841.5,922.5l0,-32" class="g1_7" />
<path d="M92.5,922.5l750,0" class="g1_7" />
<path d="M92.5,954.5l0,-32" class="g1_7" />
<path d="M467.5,954.5l0,-32" class="g1_7" />
<path d="M841.5,954.5l0,-32" class="g1_7" />
<path d="M92.5,955.5l0,-1" class="g1_7" />
<path d="M467.5,955.5l375,0" class="g1_7" />
<path d="M92.5,987.5l0,-32" class="g1_7" />
<path d="M467.5,987.5l0,-32" class="g1_7" />
<path d="M841.5,987.5l0,-32" class="g1_7" />
<path d="M467.5,987.5l375,0" class="g1_7" />
<path d="M92.5,1019.5l0,-32" class="g1_7" />
<path d="M467.5,1019.5l0,-32" class="g1_7" />
<path d="M841.5,1019.5l0,-32" class="g1_7" />
<path d="M92.5,1020.5l0,-1" class="g1_7" />
<path d="M467.5,1020.5l375,0" class="g1_7" />
<path d="M92.5,1051.5l0,-31" class="g1_7" />
<path d="M467.5,1051.5l0,-31" class="g1_7" />
<path d="M841.5,1051.5l0,-31" class="g1_7" />
<path d="M92.5,1052.5l0,-1" class="g1_7" />
<path d="M467.5,1052.5l375,0" class="g1_7" />
<path d="M92.5,1085.5l0,-33" class="g1_7" />
<path d="M92.5,1085.5l375,0" class="g1_7" />
<path d="M467.5,1085.5l0,-33" class="g1_7" />
<path d="M468.5,1085.5l373,0" class="g1_7" />
<path d="M841.5,1085.5l0,-33" class="g1_7" />
<path d="M841.5,1085.5l0,-1" class="g1_7" />
</svg>