<?xml version="1.0" encoding="UTF-8" standalone="no"?>
<!DOCTYPE svg PUBLIC "-//W3C//DTD SVG 1.1//EN"
"http://www.w3.org/Graphics/SVG/1.1/DTD/svg11.dtd">
<svg version="1.1" xmlns="http://www.w3.org/2000/svg" xmlns:xlink="http://www.w3.org/1999/xlink">
<defs>
<style type="text/css"><![CDATA[
.g2_8{
fill: none;
stroke: #000000;
stroke-width: 1;
stroke-linecap: butt;
stroke-linejoin: miter;
stroke-miterlimit: 1;
}
.g1_8{
fill: none;
stroke: #000000;
stroke-width: 1;
stroke-linecap: butt;
stroke-linejoin: miter;
}
]]></style>
</defs>
<image x="443" y="71" width="49" height="59" xlink:href="img/1.png" />
<path d="M98.5,189.5l738,0" class="g1_8" />
<path d="M749.5,411.5l85,0" class="g2_8" />
<path d="M92.5,419.5l0,-1" class="g2_8" />
<path d="M92.5,419.5l750,0" class="g2_8" />
<path d="M841.5,419.5l0,-1" class="g2_8" />
<path d="M92.5,451.5l0,-32" class="g2_8" />
<path d="M841.5,451.5l0,-32" class="g2_8" />
<path d="M92.5,452.5l750,0" class="g2_8" />
<path d="M92.5,483.5l0,-31" class="g2_8" />
<path d="M343.5,483.5l0,-31" class="g2_8" />
<path d="M592.5,483.5l0,-31" class="g2_8" />
<path d="M841.5,483.5l0,-31" class="g2_8" />
<path d="M92.5,484.5l750,0" class="g2_8" />
<path d="M92.5,516.5l0,-32" class="g2_8" />
<path d="M343.5,516.5l0,-32" class="g2_8" />
<path d="M592.5,516.5l0,-32" class="g2_8" />
<path d="M841.5,516.5l0,-32" class="g2_8" />
<path d="M92.5,516.5l750,0" class="g2_8" />
<path d="M92.5,548.5l0,-32" class="g2_8" />
<path d="M343.5,548.5l0,-32" class="g2_8" />
<path d="M592.5,548.5l0,-32" class="g2_8" />
<path d="M841.5,548.5l0,-32" class="g2_8" />
<path d="M92.5,549.5l750,0" class="g2_8" />
<path d="M92.5,580.5l0,-31" class="g2_8" />
<path d="M343.5,580.5l0,-31" class="g2_8" />
<path d="M592.5,580.5l0,-31" class="g2_8" />
<path d="M841.5,580.5l0,-31" class="g2_8" />
<path d="M92.5,581.5l750,0" class="g2_8" />
<path d="M92.5,613.5l0,-32" class="g2_8" />
<path d="M343.5,613.5l0,-32" class="g2_8" />
<path d="M592.5,613.5l0,-32" class="g2_8" />
<path d="M841.5,613.5l0,-32" class="g2_8" />
<path d="M92.5,614.5l750,0" class="g2_8" />
<path d="M92.5,645.5l0,-31" class="g2_8" />
<path d="M343.5,645.5l0,-31" class="g2_8" />
<path d="M592.5,645.5l0,-31" class="g2_8" />
<path d="M841.5,645.5l0,-31" class="g2_8" />
<path d="M92.5,646.5l750,0" class="g2_8" />
<path d="M92.5,678.5l0,-32" class="g2_8" />
<path d="M343.5,678.5l0,-32" class="g2_8" />
<path d="M592.5,678.5l0,-32" class="g2_8" />
<path d="M841.5,678.5l0,-32" class="g2_8" />
<path d="M92.5,678.5l750,0" class="g2_8" />
<path d="M92.5,710.5l0,-32" class="g2_8" />
<path d="M343.5,710.5l0,-32" class="g2_8" />
<path d="M592.5,710.5l0,-32" class="g2_8" />
<path d="M841.5,710.5l0,-32" class="g2_8" />
<path d="M92.5,711.5l750,0" class="g2_8" />
<path d="M92.5,743.5l0,-32" class="g2_8" />
<path d="M343.5,743.5l0,-32" class="g2_8" />
<path d="M592.5,743.5l0,-32" class="g2_8" />
<path d="M841.5,743.5l0,-32" class="g2_8" />
<path d="M92.5,743.5l750,0" class="g2_8" />
<path d="M92.5,775.5l0,-32" class="g2_8" />
<path d="M343.5,775.5l0,-32" class="g2_8" />
<path d="M592.5,775.5l0,-32" class="g2_8" />
<path d="M841.5,775.5l0,-32" class="g2_8" />
<path d="M92.5,776.5l750,0" class="g2_8" />
<path d="M92.5,808.5l0,-32" class="g2_8" />
<path d="M343.5,808.5l0,-32" class="g2_8" />
<path d="M592.5,808.5l0,-32" class="g2_8" />
<path d="M841.5,808.5l0,-32" class="g2_8" />
<path d="M92.5,808.5l750,0" class="g2_8" />
<path d="M92.5,840.5l0,-32" class="g2_8" />
<path d="M343.5,840.5l0,-32" class="g2_8" />
<path d="M592.5,840.5l0,-32" class="g2_8" />
<path d="M841.5,840.5l0,-32" class="g2_8" />
<path d="M92.5,841.5l750,0" class="g2_8" />
<path d="M92.5,872.5l0,-31" class="g2_8" />
<path d="M343.5,872.5l0,-31" class="g2_8" />
<path d="M592.5,872.5l0,-31" class="g2_8" />
<path d="M841.5,872.5l0,-31" class="g2_8" />
<path d="M92.5,873.5l750,0" class="g2_8" />
<path d="M92.5,905.5l0,-32" class="g2_8" />
<path d="M343.5,905.5l0,-32" class="g2_8" />
<path d="M592.5,905.5l0,-32" class="g2_8" />
<path d="M841.5,905.5l0,-32" class="g2_8" />
<path d="M92.5,905.5l750,0" class="g2_8" />
<path d="M92.5,938.5l0,-33" class="g2_8" />
<path d="M92.5,938.5l251,0" class="g2_8" />
<path d="M343.5,938.5l0,-33" class="g2_8" />
<path d="M343.5,938.5l249,0" class="g2_8" />
<path d="M592.5,938.5l0,-33" class="g2_8" />
<path d="M592.5,938.5l249,0" class="g2_8" />
<path d="M841.5,938.5l0,-33" class="g2_8" />
<path d="M841.5,938.5l0,-1" class="g2_8" />
</svg>